<svg data-v-d3f97b9e="" xmlns="http://www.w3.org/2000/svg" viewBox="0 0 426 109"><!----><!----><!----><g data-v-d3f97b9e="" id="f654cdb1-d4b8-4ac0-9311-248cdb50af23" fill="white" transform="matrix(4.823150918340797,0,0,4.823150918340797,125.18080856148222,1.114595019900257)"><path d="M5.96 14.74L2.21 14.74L2.21 14.74Q1.61 14.74 1.26 14.39L1.26 14.39L1.26 14.39Q0.91 14.04 0.91 13.44L0.91 13.44L0.91 6.20L0.91 6.20Q1.06 6.17 1.40 6.13L1.40 6.13L1.40 6.13Q1.74 6.08 2.04 6.08L2.04 6.08L2.04 6.08Q2.37 6.08 2.61 6.13L2.61 6.13L2.61 6.13Q2.86 6.17 3.02 6.30L3.02 6.30L3.02 6.30Q3.19 6.43 3.28 6.65L3.28 6.65L3.28 6.65Q3.36 6.87 3.36 7.24L3.36 7.24L3.36 12.77L6.57 12.77L6.57 12.77Q6.66 12.92 6.75 13.18L6.75 13.18L6.75 13.18Q6.83 13.44 6.83 13.72L6.83 13.72L6.83 13.72Q6.83 14.28 6.59 14.51L6.59 14.51L6.59 14.51Q6.36 14.74 5.96 14.74L5.96 14.74ZM14.81 11.30L14.81 11.30L14.81 11.30Q14.81 12.17 14.55 12.85L14.55 12.85L14.55 12.85Q14.28 13.52 13.80 13.99L13.80 13.99L13.80 13.99Q13.31 14.45 12.64 14.69L12.64 14.69L12.64 14.69Q11.97 14.92 11.14 14.92L11.14 14.92L11.14 14.92Q10.32 14.92 9.65 14.67L9.65 14.67L9.65 14.67Q8.97 14.42 8.49 13.95L8.49 13.95L8.49 13.95Q8.01 13.48 7.74 12.81L7.74 12.81L7.74 12.81Q7.48 12.14 7.48 11.30L7.48 11.30L7.48 11.30Q7.48 10.47 7.74 9.80L7.74 9.80L7.74 9.80Q8.01 9.13 8.49 8.66L8.49 8.66L8.49 8.66Q8.97 8.19 9.65 7.94L9.65 7.94L9.65 7.94Q10.32 7.69 11.14 7.69L11.14 7.69L11.14 7.69Q11.97 7.69 12.64 7.95L12.64 7.95L12.64 7.95Q13.31 8.20 13.80 8.67L13.80 8.67L13.80 8.67Q14.28 9.14 14.55 9.81L14.55 9.81L14.55 9.81Q14.81 10.49 14.81 11.30ZM9.91 11.30L9.91 11.30L9.91 11.30Q9.91 12.15 10.24 12.61L10.24 12.61L10.24 12.61Q10.57 13.06 11.16 13.06L11.16 13.06L11.16 13.06Q11.75 13.06 12.06 12.60L12.06 12.60L12.06 12.60Q12.38 12.14 12.38 11.30L12.38 11.30L12.38 11.30Q12.38 10.46 12.05 10.00L12.05 10.00L12.05 10.00Q11.73 9.55 11.14 9.55L11.14 9.55L11.14 9.55Q10.56 9.55 10.23 10.00L10.23 10.00L10.23 10.00Q9.91 10.46 9.91 11.30ZM23.02 11.30L23.02 11.30L23.02 11.30Q23.02 12.17 22.75 12.85L22.75 12.85L22.75 12.85Q22.48 13.52 22.00 13.99L22.00 13.99L22.00 13.99Q21.52 14.45 20.85 14.69L20.85 14.69L20.85 14.69Q20.17 14.92 19.35 14.92L19.35 14.92L19.35 14.92Q18.52 14.92 17.85 14.67L17.85 14.67L17.85 14.67Q17.18 14.42 16.70 13.95L16.70 13.95L16.70 13.95Q16.21 13.48 15.95 12.81L15.95 12.81L15.95 12.81Q15.68 12.14 15.68 11.30L15.68 11.30L15.68 11.30Q15.68 10.47 15.95 9.80L15.95 9.80L15.95 9.80Q16.21 9.13 16.70 8.66L16.70 8.66L16.70 8.66Q17.18 8.19 17.85 7.94L17.85 7.94L17.85 7.94Q18.52 7.69 19.35 7.69L19.35 7.69L19.35 7.69Q20.17 7.69 20.85 7.95L20.85 7.95L20.85 7.95Q21.52 8.20 22.00 8.67L22.00 8.67L22.00 8.67Q22.48 9.14 22.75 9.81L22.75 9.81L22.75 9.81Q23.02 10.49 23.02 11.30ZM18.12 11.30L18.12 11.30L18.12 11.30Q18.12 12.15 18.45 12.61L18.45 12.61L18.45 12.61Q18.77 13.06 19.36 13.06L19.36 13.06L19.36 13.06Q19.95 13.06 20.27 12.60L20.27 12.60L20.27 12.60Q20.58 12.14 20.58 11.30L20.58 11.30L20.58 11.30Q20.58 10.46 20.26 10.00L20.26 10.00L20.26 10.00Q19.94 9.55 19.35 9.55L19.35 9.55L19.35 9.55Q18.76 9.55 18.44 10.00L18.44 10.00L18.44 10.00Q18.12 10.46 18.12 11.30ZM28.59 11.23L30.83 13.47L30.83 13.47Q30.76 14.13 30.44 14.48L30.44 14.48L30.44 14.48Q30.13 14.83 29.53 14.83L29.53 14.83L29.53 14.83Q29.08 14.83 28.73 14.61L28.73 14.61L28.73 14.61Q28.38 14.39 27.97 13.87L27.97 13.87L26.59 12.14L26.59 14.69L26.59 14.69Q26.43 14.71 26.13 14.76L26.13 14.76L26.13 14.76Q25.83 14.81 25.52 14.81L25.52 14.81L25.52 14.81Q25.21 14.81 24.97 14.77L24.97 14.77L24.97 14.77Q24.72 14.73 24.56 14.60L24.56 14.60L24.56 14.60Q24.39 14.48 24.30 14.26L24.30 14.26L24.30 14.26Q24.21 14.04 24.21 13.69L24.21 13.69L24.21 5.59L24.21 5.59Q24.36 5.54 24.66 5.50L24.66 5.50L24.66 5.50Q24.96 5.45 25.27 5.45L25.27 5.45L25.27 5.45Q25.58 5.45 25.82 5.49L25.82 5.49L25.82 5.49Q26.07 5.53 26.24 5.66L26.24 5.66L26.24 5.66Q26.40 5.78 26.50 6.00L26.50 6.00L26.50 6.00Q26.59 6.22 26.59 6.57L26.59 6.57L26.59 10.26L28.99 7.80L28.99 7.80Q29.72 7.80 30.16 8.12L30.16 8.12L30.16 8.12Q30.60 8.44 30.60 8.93L30.60 8.93L30.60 8.93Q30.60 9.14 30.53 9.32L30.53 9.32L30.53 9.32Q30.46 9.49 30.32 9.67L30.32 9.67L30.32 9.67Q30.17 9.86 29.94 10.06L29.94 10.06L29.94 10.06Q29.71 10.26 29.40 10.53L29.40 10.53L28.59 11.23ZM34.69 6.01L34.69 6.01L34.69 6.01Q34.69 5.47 35.05 5.11L35.05 5.11L35.05 5.11Q35.41 4.75 35.99 4.75L35.99 4.75L35.99 4.75Q36.58 4.75 36.94 5.11L36.94 5.11L36.94 5.11Q37.30 5.47 37.30 6.01L37.30 6.01L37.30 6.01Q37.30 6.54 36.94 6.90L36.94 6.90L36.94 6.90Q36.58 7.27 35.99 7.27L35.99 7.27L35.99 7.27Q35.41 7.27 35.05 6.90L35.05 6.90L35.05 6.90Q34.69 6.54 34.69 6.01ZM37.18 8.99L37.18 14.69L37.18 14.69Q37.03 14.71 36.73 14.76L36.73 14.76L36.73 14.76Q36.43 14.81 36.12 14.81L36.12 14.81L36.12 14.81Q35.81 14.81 35.57 14.77L35.57 14.77L35.57 14.77Q35.32 14.73 35.15 14.60L35.15 14.60L35.15 14.60Q34.99 14.48 34.90 14.26L34.90 14.26L34.90 14.26Q34.80 14.04 34.80 13.69L34.80 13.69L34.80 7.99L34.80 7.99Q34.96 7.97 35.26 7.92L35.26 7.92L35.26 7.92Q35.56 7.87 35.87 7.87L35.87 7.87L35.87 7.87Q36.18 7.87 36.42 7.91L36.42 7.91L36.42 7.91Q36.67 7.95 36.83 8.08L36.83 8.08L36.83 8.08Q37.00 8.20 37.09 8.42L37.09 8.42L37.09 8.42Q37.18 8.64 37.18 8.99L37.18 8.99ZM41.08 10.25L41.08 12.36L41.08 12.36Q41.08 12.73 41.31 12.88L41.31 12.88L41.31 12.88Q41.54 13.03 41.96 13.03L41.96 13.03L41.96 13.03Q42.17 13.03 42.39 13.00L42.39 13.00L42.39 13.00Q42.62 12.96 42.78 12.91L42.78 12.91L42.78 12.91Q42.91 13.06 43.00 13.25L43.00 13.25L43.00 13.25Q43.09 13.44 43.09 13.71L43.09 13.71L43.09 13.71Q43.09 14.24 42.69 14.57L42.69 14.57L42.69 14.57Q42.29 14.91 41.29 14.91L41.29 14.91L41.29 14.91Q40.05 14.91 39.39 14.35L39.39 14.35L39.39 14.35Q38.72 13.79 38.72 12.53L38.72 12.53L38.72 6.54L38.72 6.54Q38.88 6.50 39.17 6.45L39.17 6.45L39.17 6.45Q39.45 6.40 39.77 6.40L39.77 6.40L39.77 6.40Q40.39 6.40 40.73 6.62L40.73 6.62L40.73 6.62Q41.08 6.83 41.08 7.53L41.08 7.53L41.08 8.43L42.91 8.43L42.91 8.43Q42.99 8.58 43.07 8.81L43.07 8.81L43.07 8.81Q43.15 9.04 43.15 9.32L43.15 9.32L43.15 9.32Q43.15 9.81 42.93 10.03L42.93 10.03L42.93 10.03Q42.71 10.25 42.35 10.25L42.35 10.25L41.08 10.25ZM47.10 12.00L47.10 7.99L47.10 7.99Q47.24 7.95 47.54 7.91L47.54 7.91L47.54 7.91Q47.84 7.87 48.16 7.87L48.16 7.87L48.16 7.87Q48.47 7.87 48.71 7.91L48.71 7.91L48.71 7.91Q48.96 7.95 49.13 8.08L49.13 8.08L49.13 8.08Q49.29 8.20 49.39 8.42L49.39 8.42L49.39 8.42Q49.48 8.64 49.48 8.99L49.48 8.99L49.48 12.00L49.48 12.00Q49.48 12.57 49.76 12.82L49.76 12.82L49.76 12.82Q50.04 13.06 50.57 13.06L50.57 13.06L50.57 13.06Q50.89 13.06 51.09 13.01L51.09 13.01L51.09 13.01Q51.30 12.95 51.41 12.89L51.41 12.89L51.41 7.99L51.41 7.99Q51.55 7.95 51.85 7.91L51.85 7.91L51.85 7.91Q52.15 7.87 52.47 7.87L52.47 7.87L52.47 7.87Q52.78 7.87 53.03 7.91L53.03 7.91L53.03 7.91Q53.27 7.95 53.44 8.08L53.44 8.08L53.44 8.08Q53.61 8.20 53.70 8.42L53.70 8.42L53.70 8.42Q53.79 8.64 53.79 8.99L53.79 8.99L53.79 13.24L53.79 13.24Q53.79 13.94 53.20 14.29L53.20 14.29L53.20 14.29Q52.71 14.60 52.03 14.76L52.03 14.76L52.03 14.76Q51.35 14.92 50.55 14.92L50.55 14.92L50.55 14.92Q49.80 14.92 49.16 14.76L49.16 14.76L49.16 14.76Q48.52 14.59 48.06 14.24L48.06 14.24L48.06 14.24Q47.60 13.89 47.35 13.34L47.35 13.34L47.35 13.34Q47.10 12.78 47.10 12.00L47.10 12.00ZM58.37 7.69L58.37 7.69L58.37 7.69Q59.21 7.69 59.93 7.90L59.93 7.90L59.93 7.90Q60.65 8.12 61.17 8.57L61.17 8.57L61.17 8.57Q61.68 9.02 61.98 9.70L61.98 9.70L61.98 9.70Q62.27 10.37 62.27 11.31L62.27 11.31L62.27 11.31Q62.27 12.21 62.02 12.88L62.02 12.88L62.02 12.88Q61.77 13.55 61.31 14.01L61.31 14.01L61.31 14.01Q60.84 14.46 60.19 14.69L60.19 14.69L60.19 14.69Q59.54 14.91 58.74 14.91L58.74 14.91L58.74 14.91Q58.14 14.91 57.62 14.73L57.62 14.73L57.62 17.05L57.62 17.05Q57.48 17.09 57.18 17.14L57.18 17.14L57.18 17.14Q56.87 17.19 56.55 17.19L56.55 17.19L56.55 17.19Q56.24 17.19 55.99 17.15L55.99 17.15L55.99 17.15Q55.75 17.11 55.58 16.98L55.58 16.98L55.58 16.98Q55.41 16.86 55.33 16.64L55.33 16.64L55.33 16.64Q55.24 16.42 55.24 16.07L55.24 16.07L55.24 9.35L55.24 9.35Q55.24 8.97 55.41 8.74L55.41 8.74L55.41 8.74Q55.57 8.50 55.85 8.30L55.85 8.30L55.85 8.30Q56.28 8.02 56.92 7.85L56.92 7.85L56.92 7.85Q57.57 7.69 58.37 7.69ZM58.39 13.03L58.39 13.03L58.39 13.03Q59.84 13.03 59.84 11.31L59.84 11.31L59.84 11.31Q59.84 10.42 59.48 9.98L59.48 9.98L59.48 9.98Q59.12 9.55 58.45 9.55L58.45 9.55L58.45 9.55Q58.18 9.55 57.97 9.61L57.97 9.61L57.97 9.61Q57.76 9.67 57.61 9.76L57.61 9.76L57.61 12.84L57.61 12.84Q57.78 12.92 57.97 12.98L57.97 12.98L57.97 12.98Q58.17 13.03 58.39 13.03Z"></path></g><!----><g data-v-d3f97b9e="" id="0c323521-8d97-4dfa-baa0-5abb39104752" transform="matrix(1.0956942240397136,0,0,1.0956942240397136,0.21505891221749351,-0.09087857147248712)" stroke="none" fill="white"><path d="M97.926 87.61c-1.719-2.011-2.979-3.625-3.992-6.511-2.095-7.791.355-16.72.355-16.72l-.014.009a48.249 48.249 0 0 0 2.491-15.311C96.766 22.354 75.101.693 48.383.693 21.665.694 0 22.355 0 49.078c0 20.68 12.981 38.32 31.232 45.243l-.009.001s.114.046.322.122a47.861 47.861 0 0 0 7.428 2.094c9.888 2.231 28.944 4.761 55.476.315 6.591-1.13 6.717-5.448 3.477-9.243zM65.045 65.791a3.075 3.075 0 0 1-2.249.972 3.066 3.066 0 0 1-2.113-.837L54.2 59.835a13.476 13.476 0 0 1-6.24 1.531c-7.487 0-13.578-6.091-13.578-13.578 0-7.487 6.091-13.578 13.578-13.578 7.488 0 13.579 6.091 13.579 13.578 0 2.993-.984 5.751-2.631 7.998l6.003 5.642a3.087 3.087 0 0 1 .134 4.363z"></path><path d="M47.96 39.613c-4.507 0-8.174 3.667-8.174 8.175 0 4.506 3.667 8.174 8.174 8.174s8.175-3.668 8.175-8.174c.001-4.508-3.667-8.175-8.175-8.175z"></path></g><!----></svg>