<svg data-v-d3f97b9e="" xmlns="http://www.w3.org/2000/svg" viewBox="0 0 60.84448101345149 60"><!----><!----><!----><!----><g data-v-d3f97b9e="" id="68a28161-1d1e-4024-934b-768fa3782ed0" transform="matrix(0.6084422570091994,0,0,0.6084422570091994,7.042117537991999e-7,-0.4216512469440872)" stroke="none" fill="black"><path d="M97.926 87.61c-1.719-2.011-2.979-3.625-3.992-6.511-2.095-7.791.355-16.72.355-16.72l-.014.009a48.249 48.249 0 0 0 2.491-15.311C96.766 22.354 75.101.693 48.383.693 21.665.694 0 22.355 0 49.078c0 20.68 12.981 38.32 31.232 45.243l-.009.001s.114.046.322.122a47.861 47.861 0 0 0 7.428 2.094c9.888 2.231 28.944 4.761 55.476.315 6.591-1.13 6.717-5.448 3.477-9.243zM65.045 65.791a3.075 3.075 0 0 1-2.249.972 3.066 3.066 0 0 1-2.113-.837L54.2 59.835a13.476 13.476 0 0 1-6.24 1.531c-7.487 0-13.578-6.091-13.578-13.578 0-7.487 6.091-13.578 13.578-13.578 7.488 0 13.579 6.091 13.579 13.578 0 2.993-.984 5.751-2.631 7.998l6.003 5.642a3.087 3.087 0 0 1 .134 4.363z"></path><path d="M47.96 39.613c-4.507 0-8.174 3.667-8.174 8.175 0 4.506 3.667 8.174 8.174 8.174s8.175-3.668 8.175-8.174c.001-4.508-3.667-8.175-8.175-8.175z"></path></g><!----></svg>