<svg data-v-29081953="" xmlns="http://www.w3.org/2000/svg" viewBox="0 0 300 300"><!----><defs data-v-29081953=""><linearGradient data-v-29081953="" gradientTransform="rotate(25)" id="9ecc039a-d9a7-41c5-8a35-2d391ac40aa2" x1="0%" y1="0%" x2="100%" y2="0%"><stop data-v-29081953="" offset="0%" stop-color="#30223A" stop-opacity="1"></stop><stop data-v-29081953="" offset="100%" stop-color="#F13800" stop-opacity="1"></stop></linearGradient></defs><rect data-v-29081953="" fill="url(#9ecc039a-d9a7-41c5-8a35-2d391ac40aa2)" x="0" y="0" width="300px" height="300px" class="logo-background-square"></rect><!----><defs data-v-29081953=""><!----></defs><g data-v-29081953="" id="a36650f6-8c71-47f2-90ac-2228fda3223e" fill="#ffffff" stroke="none" transform="matrix(2.199990768471354,0,0,2.199990768471354,40,40.002133217443316)"><path d="M97.926 87.61c-1.719-2.011-2.979-3.625-3.992-6.511-2.095-7.791.355-16.72.355-16.72l-.014.009a48.249 48.249 0 0 0 2.491-15.311C96.766 22.354 75.101.693 48.383.693 21.665.694 0 22.355 0 49.078c0 20.68 12.981 38.32 31.232 45.243l-.009.001s.114.046.322.122a47.861 47.861 0 0 0 7.428 2.094c9.888 2.231 28.944 4.761 55.476.315 6.591-1.13 6.717-5.448 3.477-9.243zM65.045 65.791a3.075 3.075 0 0 1-2.249.972 3.066 3.066 0 0 1-2.113-.837L54.2 59.835a13.476 13.476 0 0 1-6.24 1.531c-7.487 0-13.578-6.091-13.578-13.578 0-7.487 6.091-13.578 13.578-13.578 7.488 0 13.579 6.091 13.579 13.578 0 2.993-.984 5.751-2.631 7.998l6.003 5.642a3.087 3.087 0 0 1 .134 4.363z"></path><path d="M47.96 39.613c-4.507 0-8.174 3.667-8.174 8.175 0 4.506 3.667 8.174 8.174 8.174s8.175-3.668 8.175-8.174c.001-4.508-3.667-8.175-8.175-8.175z"></path></g><!----></svg>